<svg width="41" height="40" viewBox="0 0 41 40" fill="none" xmlns="http://www.w3.org/2000/svg">
<path d="M38.9759 21.4287C38.6395 17.1134 36.7849 13.1032 33.6784 10.0307C30.6828 7.06789 26.8275 5.27936 22.6816 4.89698C23.112 4.466 23.3782 3.87102 23.3782 3.21377C23.3782 1.89825 22.3117 0.831665 20.9961 0.831665C19.6804 0.831665 18.614 1.89825 18.614 3.21377C18.614 3.87094 18.8801 4.466 19.3105 4.89698C15.1646 5.27936 11.3095 7.06789 8.31383 10.0307C5.2072 13.1032 3.35265 17.1134 3.01621 21.4287H0.994141V23.3223H2.94628H5.07617V25.0363L10.6601 27.8191L24.4696 29.9586L24.5173 29.9651C24.5173 29.9651 24.9981 30.0329 25.4516 30.2857C26.1276 30.6625 26.2142 31.1488 26.2142 31.5302V32.0832H25.315V39.1687H38.068V32.0833H36.753V25.6777L34.3609 23.3223H39.0457H40.998V21.4287H38.9759ZM24.2677 28.0905L10.8561 26.0127L6.96978 24.076V23.3223H31.4257L34.8595 26.7033V32.0832H28.6635L28.1079 32.0858C28.108 29.2928 25.6115 28.2546 24.2677 28.0905ZM36.1745 34.0219V37.275H27.2088V34.0219H36.1745ZM31.8736 21.4287H4.91849C5.64567 13.5146 12.9199 6.71237 20.9961 6.71237C29.0722 6.71237 36.3464 13.5146 37.0736 21.4288L31.8736 21.4287Z" fill="#FF9522"/>
</svg>
