<svg width="41" height="40" viewBox="0 0 41 40" fill="none" xmlns="http://www.w3.org/2000/svg">
<path d="M38.9753 21.4287C38.6389 17.1134 36.7843 13.1032 33.6777 10.0307C30.6822 7.06789 26.8269 5.27936 22.681 4.89698C23.1114 4.466 23.3775 3.87102 23.3775 3.21377C23.3775 1.89825 22.3111 0.831665 20.9954 0.831665C19.6798 0.831665 18.6133 1.89825 18.6133 3.21377C18.6133 3.87094 18.8795 4.466 19.3099 4.89698C15.164 5.27936 11.3089 7.06789 8.31322 10.0307C5.20659 13.1032 3.35204 17.1134 3.0156 21.4287H0.99353V23.3223H2.94567H5.07556V25.0363L10.6595 27.8191L24.469 29.9586L24.5166 29.9651C24.5166 29.9651 24.9975 30.0329 25.451 30.2857C26.1269 30.6625 26.2136 31.1488 26.2136 31.5302V32.0832H25.3144V39.1687H38.0674V32.0833H36.7524V25.6777L34.3602 23.3223H39.0451H40.9974V21.4287H38.9753ZM24.2671 28.0905L10.8555 26.0127L6.96917 24.076V23.3223H31.4251L34.8589 26.7033V32.0832H28.6629L28.1073 32.0858C28.1074 29.2928 25.6109 28.2546 24.2671 28.0905ZM36.1739 34.0219V37.275H27.2081V34.0219H36.1739ZM31.873 21.4287H4.91788C5.64506 13.5146 12.9193 6.71237 20.9954 6.71237C29.0716 6.71237 36.3458 13.5146 37.073 21.4288L31.873 21.4287Z" fill="#FF9522"/>
</svg>
