<svg width="34" height="40" viewBox="0 0 34 40" fill="none" xmlns="http://www.w3.org/2000/svg">
<path d="M28.7134 14.1906C25.322 10.4449 23.3066 7.14751 22.2129 5.0409C21.0284 2.75914 20.6402 1.34422 20.6373 1.33296L20.2847 0L19.0255 0.561664C18.8783 0.627268 15.3992 2.21389 13.4497 6.1127C12.4711 8.06996 12.2754 10.2491 12.2836 11.7325C12.2884 12.5957 11.6768 13.3453 10.8294 13.5147C10.2353 13.6334 9.62411 13.4487 9.1953 13.0199L6.84973 10.6743L6.04285 11.787C5.9591 11.9025 3.98722 14.6219 3.62823 15.1653C1.87521 17.819 0.961132 20.9102 0.984824 24.1048C1.01657 28.3714 2.69445 32.3687 5.70935 35.3606C8.7241 38.3522 12.7343 39.9997 17.0011 39.9997C25.8327 39.9996 33.0177 32.8147 33.0177 23.9831C33.0177 20.781 31.4489 17.2118 28.7134 14.1906ZM17.0012 37.6539C13.3575 37.6539 9.93415 36.2482 7.36182 33.6955C4.78941 31.1427 3.35784 27.7305 3.33071 24.0873C3.31038 21.3601 4.09012 18.722 5.58557 16.4584C5.76816 16.1821 6.50059 15.1602 7.13639 14.2784L7.53666 14.6787C8.52127 15.6633 9.9239 16.0882 11.2896 15.815C13.2357 15.4258 14.6404 13.7035 14.6295 11.7196C14.6227 10.4919 14.7766 8.70466 15.548 7.16174C16.4869 5.28393 17.8906 4.05668 18.866 3.37421C19.7481 5.61805 21.9844 10.2537 26.9745 15.7651C28.0862 16.9929 30.6719 20.2516 30.6719 23.9832C30.6719 31.5212 24.5392 37.6539 17.0012 37.6539Z" fill="#C8003C"/>
<path d="M19.3744 19.9007L12.0195 30.6714H14.6199L21.9747 19.9007H19.3744Z" fill="#C8003C"/>
<path d="M20.946 24.8258C19.315 24.8258 18.084 25.9183 18.084 27.8263C18.084 29.7496 19.3149 30.8267 20.946 30.8267C22.577 30.8267 23.8079 29.7496 23.8079 27.8263C23.8079 25.9183 22.5769 24.8258 20.946 24.8258ZM20.946 29.1649C20.6075 29.1649 20.269 28.8571 20.269 27.8262C20.269 26.7953 20.6075 26.4875 20.946 26.4875C21.2845 26.4875 21.623 26.7953 21.623 27.8262C21.623 28.8571 21.2845 29.1649 20.946 29.1649Z" fill="#C8003C"/>
<path d="M15.9174 22.7478C15.9174 20.8399 14.6864 19.7474 13.0554 19.7474C11.4244 19.7474 10.1934 20.8399 10.1934 22.7478C10.1934 24.6711 11.4244 25.7482 13.0554 25.7482C14.6864 25.7482 15.9174 24.6711 15.9174 22.7478ZM12.3784 22.7478C12.3784 21.7169 12.7169 21.4091 13.0554 21.4091C13.3939 21.4091 13.7324 21.7169 13.7324 22.7478C13.7324 23.7787 13.3939 24.0865 13.0554 24.0865C12.7169 24.0865 12.3784 23.7787 12.3784 22.7478Z" fill="#C8003C"/>
</svg>
