<svg width="40" height="40" viewBox="0 0 40 40" fill="none" xmlns="http://www.w3.org/2000/svg">
<path fill-rule="evenodd" clip-rule="evenodd" d="M25.4196 39.8644C24.9523 39.8644 24.5734 39.5089 24.5734 39.0704C24.5734 38.6319 24.9522 38.2764 25.4196 38.2764L26.9948 38.2764C27.3301 38.2764 27.595 38.1819 27.8025 38.0312C27.9982 37.8892 28.1429 37.697 28.2475 37.487C28.4111 37.1583 28.4765 36.7858 28.4856 36.4919V33.5612C28.4856 32.6593 28.41 31.9001 28.2812 31.2483C27.9276 29.4585 27.173 28.4793 26.4828 27.5835C26.386 27.4578 26.2904 27.3338 26.1974 27.2094C21.8452 21.3896 24.8184 14.4813 24.8184 14.4813H33.6754C33.6754 14.4813 36.6465 21.3896 32.2943 27.2094C32.2151 27.3153 32.1345 27.4209 32.0531 27.5275C31.358 28.4378 30.6086 29.4191 30.2618 31.2425C30.1375 31.8955 30.0649 32.6566 30.0649 33.5612V36.4203C30.0649 36.4436 30.0653 36.4675 30.0661 36.4919C30.0665 36.506 30.0671 36.5204 30.0678 36.5349C30.0817 36.8214 30.1486 37.1739 30.3044 37.4867C30.4091 37.6968 30.5539 37.8891 30.7498 38.0312C30.9574 38.182 31.2224 38.2764 31.5577 38.2764H33.2998C33.7672 38.2764 34.146 38.6319 34.146 39.0704C34.146 39.5089 33.7672 39.8644 33.2998 39.8644H25.4196ZM29.2573 28.2652C28.8483 27.5184 28.3821 26.9161 28.0306 26.462C27.945 26.3514 27.8662 26.2495 27.7966 26.1565C25.9647 23.7069 25.6457 20.9949 25.8238 18.8021C25.9041 17.8123 26.0845 16.9536 26.2567 16.3144H32.2368C32.4087 16.9536 32.5888 17.8121 32.669 18.8018C32.8465 20.9946 32.5272 23.7067 30.6951 26.1564C30.6316 26.2414 30.5618 26.3324 30.4872 26.4297C30.1308 26.8943 29.6654 27.5011 29.2573 28.2652ZM31.863 15.1654C31.862 15.1631 31.8613 15.1615 31.8613 15.1615L31.862 15.1632L31.863 15.1654Z" fill="#FF9522"/>
<path fill-rule="evenodd" clip-rule="evenodd" d="M15.822 1.68311C15.8224 1.68941 15.8228 1.69603 15.8232 1.70294C15.8266 1.76214 15.8306 1.84461 15.8333 1.93879C15.8384 2.11512 15.8403 2.37702 15.8131 2.60565C15.7849 2.84259 15.7094 3.0436 15.6755 3.13374C15.6712 3.1452 15.6676 3.15486 15.6648 3.16258C15.6634 3.16642 15.6622 3.17 15.661 3.17333C15.6623 3.17611 15.6636 3.17903 15.6649 3.18207C15.7067 3.27454 15.8013 3.4844 15.8177 3.76171C15.8379 4.1053 15.7331 4.367 15.6834 4.4909C15.6822 4.49406 15.6809 4.49714 15.6798 4.50012C15.6704 4.52345 15.6636 4.54112 15.6587 4.55415C15.663 4.56672 15.6693 4.58435 15.6783 4.60846C15.6803 4.61392 15.6825 4.61974 15.6848 4.62591C15.7269 4.73794 15.8125 4.9654 15.8189 5.25847C15.8293 5.72603 15.6421 6.07194 15.5474 6.24678C15.5437 6.25365 15.5402 6.26025 15.5367 6.26658C15.4854 6.36196 15.4698 6.39325 15.4599 6.4198C15.458 6.42485 15.4566 6.42957 15.4566 6.42957C15.4566 9.81327 15.4574 11.4974 16.0016 14.628C16.2291 15.9369 16.6911 16.8816 17.2359 17.8941C17.2931 18.0005 17.3515 18.108 17.4107 18.217C17.9149 19.1452 18.4782 20.1821 18.8791 21.5438C18.9902 21.9212 19.1036 22.2749 19.2134 22.6177C19.6331 23.9273 20.0019 25.0781 20.0019 26.7858V37.749C20.0019 38.8974 19.0638 40 17.6864 40H7.92795C6.71854 40 5.33215 39.192 5.33227 37.749C5.33242 36.0732 5.3323 34.5889 5.33219 33.0852C5.33204 31.1639 5.33189 29.2107 5.33227 26.7856C5.33253 25.1619 5.74004 24.014 6.16889 22.8059C6.31422 22.3965 6.46201 21.9802 6.59722 21.5361C7.00263 20.2047 7.50247 19.1781 7.96006 18.2384C8.01176 18.1322 8.06292 18.0271 8.11335 17.9228C8.60966 16.8965 9.04991 15.9195 9.34018 14.5914C9.85904 12.2175 9.89698 10.7079 9.95093 8.5606C9.96721 7.91274 9.98494 7.20684 10.0178 6.40166C10.0121 6.38708 9.99472 6.34652 9.94696 6.25453C9.94332 6.24753 9.93948 6.24018 9.93545 6.23247C9.84454 6.05851 9.65974 5.7049 9.6839 5.23344C9.69938 4.93129 9.80089 4.69755 9.84784 4.58945C9.85101 4.58216 9.85393 4.57544 9.85655 4.56931C9.85812 4.56565 9.8596 4.56218 9.861 4.55887C9.85925 4.55511 9.85741 4.55115 9.85547 4.547C9.85383 4.54351 9.85212 4.53986 9.85034 4.53607C9.79217 4.41231 9.65945 4.1299 9.68472 3.75447C9.70285 3.48501 9.79891 3.27713 9.85487 3.16879C9.8135 3.07481 9.72473 2.8669 9.69086 2.62148C9.65795 2.38298 9.66059 2.11276 9.66647 1.93522C9.66964 1.8395 9.67438 1.75569 9.67834 1.69551C9.68033 1.66528 9.68214 1.64062 9.68351 1.62296L9.6852 1.60179L9.68573 1.59541L9.68602 1.59212C9.68602 1.59212 9.68603 1.592 10.6596 1.66676L9.68602 1.59212L9.68696 1.58133L9.68815 1.5707C9.73781 1.12862 10.0033 0.812183 10.2666 0.612794C10.5212 0.41996 10.8193 0.297886 11.0887 0.217008C11.6312 0.0541 12.2784 -0.00669464 12.8706 0.000577639C13.4601 0.0078172 14.0942 0.0837393 14.6063 0.256525C14.8561 0.340826 15.1554 0.473914 15.3974 0.695337C15.6403 0.917618 15.8489 1.25983 15.822 1.68311ZM10.0202 6.40852L10.0196 6.40664L10.0202 6.40852ZM13.8796 1.96101C13.6372 1.89083 13.2671 1.83873 12.845 1.83355C12.3854 1.82791 11.9631 1.87914 11.6841 1.96291C11.66 1.97016 11.6385 1.9772 11.6194 1.98388C11.6193 1.98664 11.6192 1.98941 11.6191 1.9922C11.6138 2.15193 11.6165 2.30005 11.6282 2.38577C11.6282 2.38577 11.6301 2.39264 11.6337 2.40266C11.6411 2.42282 11.6464 2.43502 11.6574 2.46048C11.6645 2.47704 11.6741 2.49921 11.6883 2.53283C11.7517 2.68358 11.8532 2.94477 11.8296 3.29451C11.8124 3.54944 11.7255 3.74925 11.6688 3.86177C11.7262 3.98432 11.8315 4.23215 11.8316 4.54468C11.8316 4.87464 11.7252 5.1224 11.6728 5.24448C11.6716 5.24745 11.6703 5.25034 11.6691 5.25316C11.655 5.28604 11.646 5.30819 11.6403 5.32246C11.6489 5.34272 11.667 5.3819 11.7032 5.45163C11.7072 5.45934 11.7115 5.46751 11.716 5.47614C11.8058 5.64759 11.9893 5.99817 11.9703 6.46398C11.9395 7.2161 11.9227 7.89353 11.907 8.52927C11.8526 10.7182 11.8106 12.4129 11.2539 14.9597C10.9192 16.4915 10.4064 17.6172 9.89238 18.6803C9.84096 18.7866 9.78969 18.892 9.73865 18.997C9.27968 19.9406 8.83876 20.8472 8.47565 22.0397C8.29244 22.6414 8.11646 23.1377 7.95862 23.5828C7.56628 24.6893 7.28608 25.4795 7.28587 26.7859C7.28549 29.2112 7.28564 31.1636 7.28578 33.0845C7.2859 34.5881 7.28602 36.0725 7.28587 37.7491C7.28586 37.8399 7.32389 37.9264 7.42931 38.009C7.54436 38.0993 7.72446 38.1669 7.92795 38.1669H17.6864C17.7732 38.1669 17.8535 38.1349 17.9229 38.0641C17.9963 37.9892 18.0483 37.8771 18.0483 37.749V26.7858C18.0483 25.3678 17.7737 24.5062 17.3731 23.2493C17.2568 22.8846 17.1299 22.4866 16.9961 22.032C16.6504 20.858 16.1748 19.9807 15.6686 19.0469C15.61 18.939 15.5511 18.8302 15.4919 18.7202C14.921 17.6592 14.3499 16.5134 14.0735 14.9231C13.503 11.6413 13.503 9.83267 13.503 6.44224V6.42885C13.503 5.97387 13.6874 5.63446 13.7794 5.46509C13.7843 5.45613 13.7889 5.44765 13.7932 5.43965C13.8418 5.34945 13.8561 5.31947 13.864 5.29754C13.86 5.28508 13.8515 5.25996 13.8343 5.21379C13.8329 5.21006 13.8314 5.2062 13.8299 5.2022C13.7856 5.0838 13.6982 4.85005 13.6982 4.54469C13.6983 4.23117 13.7982 3.98535 13.8422 3.87709C13.8447 3.87083 13.8471 3.86503 13.8493 3.8597C13.8061 3.7639 13.7157 3.55764 13.6997 3.28725C13.6809 2.96699 13.7604 2.72496 13.8136 2.57683C13.8205 2.55772 13.8265 2.54103 13.8318 2.5264C13.8685 2.42454 13.8691 2.42276 13.8716 2.40193C13.8831 2.3057 13.885 2.14909 13.8804 1.98812C13.8802 1.97895 13.8799 1.96991 13.8796 1.96101Z" fill="#FF9522"/>
</svg>
