<svg width="30" height="40" viewBox="0 0 30 40" fill="none" xmlns="http://www.w3.org/2000/svg">
<path fill-rule="evenodd" clip-rule="evenodd" d="M20.4196 39.8644C19.9523 39.8644 19.5734 39.5089 19.5734 39.0704C19.5734 38.6319 19.9522 38.2764 20.4196 38.2764L21.9948 38.2764C22.3301 38.2764 22.595 38.1819 22.8025 38.0312C22.9982 37.8892 23.1429 37.697 23.2475 37.487C23.4111 37.1583 23.4765 36.7858 23.4856 36.4919V33.5612C23.4856 32.6593 23.41 31.9001 23.2812 31.2483C22.9276 29.4585 22.173 28.4793 21.4828 27.5835C21.386 27.4578 21.2904 27.3338 21.1974 27.2094C16.8452 21.3896 19.8184 14.4813 19.8184 14.4813H28.6754C28.6754 14.4813 31.6465 21.3896 27.2943 27.2094C27.2151 27.3153 27.1345 27.4209 27.0531 27.5275C26.358 28.4378 25.6086 29.4191 25.2618 31.2425C25.1375 31.8955 25.0649 32.6566 25.0649 33.5612V36.4203C25.0649 36.4436 25.0653 36.4675 25.0661 36.4919C25.0665 36.506 25.0671 36.5204 25.0678 36.5349C25.0817 36.8214 25.1486 37.1739 25.3044 37.4867C25.4091 37.6968 25.5539 37.8891 25.7498 38.0312C25.9574 38.182 26.2224 38.2764 26.5577 38.2764H28.2998C28.7672 38.2764 29.146 38.6319 29.146 39.0704C29.146 39.5089 28.7672 39.8644 28.2998 39.8644H20.4196ZM24.2573 28.2652C23.8483 27.5184 23.3821 26.9161 23.0306 26.462C22.945 26.3514 22.8662 26.2495 22.7966 26.1565C20.9647 23.7069 20.6457 20.9949 20.8238 18.8021C20.9041 17.8123 21.0845 16.9536 21.2567 16.3144H27.2368C27.4087 16.9536 27.5888 17.8121 27.669 18.8018C27.8465 20.9946 27.5272 23.7067 25.6951 26.1564C25.6316 26.2414 25.5618 26.3324 25.4872 26.4297C25.1308 26.8943 24.6654 27.5011 24.2573 28.2652ZM26.863 15.1654C26.862 15.1631 26.8613 15.1615 26.8613 15.1615L26.862 15.1632L26.863 15.1654Z" fill="#FF9522"/>
<path fill-rule="evenodd" clip-rule="evenodd" d="M10.822 1.68311C10.8224 1.68941 10.8228 1.69603 10.8232 1.70294C10.8266 1.76214 10.8306 1.84461 10.8333 1.93879C10.8384 2.11512 10.8403 2.37702 10.8131 2.60565C10.7849 2.84259 10.7094 3.0436 10.6755 3.13374C10.6712 3.1452 10.6676 3.15486 10.6648 3.16258C10.6634 3.16642 10.6622 3.17 10.661 3.17333C10.6623 3.17611 10.6636 3.17903 10.6649 3.18207C10.7067 3.27454 10.8013 3.4844 10.8177 3.76171C10.8379 4.1053 10.7331 4.367 10.6834 4.4909C10.6822 4.49406 10.6809 4.49714 10.6798 4.50012C10.6704 4.52345 10.6636 4.54112 10.6587 4.55415C10.663 4.56672 10.6693 4.58435 10.6783 4.60846C10.6803 4.61392 10.6825 4.61974 10.6848 4.62591C10.7269 4.73794 10.8125 4.9654 10.8189 5.25847C10.8293 5.72603 10.6421 6.07194 10.5474 6.24678C10.5437 6.25365 10.5402 6.26025 10.5367 6.26658C10.4854 6.36196 10.4698 6.39325 10.4599 6.4198C10.458 6.42485 10.4566 6.42957 10.4566 6.42957C10.4566 9.81327 10.4574 11.4974 11.0016 14.628C11.2291 15.9369 11.6911 16.8816 12.2359 17.8941C12.2931 18.0005 12.3515 18.108 12.4107 18.217C12.9149 19.1452 13.4782 20.1821 13.8791 21.5438C13.9902 21.9212 14.1036 22.2749 14.2134 22.6177C14.6331 23.9273 15.0019 25.0781 15.0019 26.7858V37.749C15.0019 38.8974 14.0638 40 12.6864 40H2.92795C1.71854 40 0.33215 39.192 0.332274 37.749C0.332419 36.0732 0.332304 34.5889 0.332189 33.0852C0.332041 31.1639 0.33189 29.2107 0.332274 26.7856C0.332531 25.1619 0.740044 24.014 1.16889 22.8059C1.31422 22.3965 1.46201 21.9802 1.59722 21.5361C2.00263 20.2047 2.50247 19.1781 2.96006 18.2384C3.01176 18.1322 3.06292 18.0271 3.11335 17.9228C3.60966 16.8965 4.04991 15.9195 4.34018 14.5914C4.85904 12.2175 4.89698 10.7079 4.95093 8.5606C4.96721 7.91274 4.98494 7.20684 5.01779 6.40166C5.01213 6.38708 4.99472 6.34652 4.94696 6.25453C4.94332 6.24753 4.93948 6.24018 4.93545 6.23247C4.84454 6.05851 4.65974 5.7049 4.6839 5.23344C4.69938 4.93129 4.80089 4.69755 4.84784 4.58945C4.85101 4.58216 4.85393 4.57544 4.85655 4.56931C4.85812 4.56565 4.8596 4.56218 4.861 4.55887C4.85925 4.55511 4.85741 4.55115 4.85547 4.547C4.85383 4.54351 4.85212 4.53986 4.85034 4.53607C4.79217 4.41231 4.65945 4.1299 4.68472 3.75447C4.70285 3.48501 4.79891 3.27713 4.85487 3.16879C4.8135 3.07481 4.72473 2.8669 4.69086 2.62148C4.65795 2.38298 4.66059 2.11276 4.66647 1.93522C4.66964 1.8395 4.67438 1.75569 4.67834 1.69551C4.68033 1.66528 4.68214 1.64062 4.68351 1.62296L4.6852 1.60179L4.68573 1.59541L4.68602 1.59212C4.68602 1.59212 4.68603 1.592 5.65957 1.66676L4.68602 1.59212L4.68696 1.58133L4.68815 1.5707C4.73781 1.12862 5.00329 0.812183 5.26658 0.612794C5.52123 0.41996 5.81935 0.297886 6.08867 0.217007C6.63115 0.0541 7.27842 -0.00669464 7.87059 0.000577639C8.46008 0.0078172 9.09424 0.0837393 9.60631 0.256525C9.85615 0.340826 10.1554 0.473914 10.3974 0.695337C10.6403 0.917618 10.8489 1.25983 10.822 1.68311ZM5.02022 6.40852L5.01964 6.40664ZM8.87958 1.96101C8.63719 1.89083 8.26714 1.83873 7.84502 1.83355C7.38539 1.82791 6.96307 1.87914 6.68414 1.96291C6.65997 1.97016 6.63846 1.9772 6.61941 1.98388C6.61931 1.98664 6.61922 1.98941 6.61912 1.9922C6.61383 2.15193 6.61646 2.30005 6.62824 2.38577C6.62824 2.38577 6.63008 2.39264 6.63375 2.40266C6.64113 2.42282 6.64639 2.43502 6.65738 2.46048C6.66453 2.47704 6.67411 2.49921 6.68826 2.53283C6.75171 2.68358 6.85319 2.94477 6.82962 3.29451C6.81243 3.54944 6.7255 3.74925 6.6688 3.86177C6.72622 3.98432 6.83154 4.23215 6.83156 4.54468C6.83159 4.87464 6.72524 5.1224 6.67284 5.24448C6.67157 5.24745 6.67033 5.25034 6.66912 5.25316C6.65503 5.28604 6.64597 5.30819 6.64028 5.32246C6.64893 5.34272 6.66699 5.3819 6.70319 5.45163C6.7072 5.45934 6.71148 5.46751 6.71599 5.47614C6.80576 5.64759 6.98932 5.99817 6.97027 6.46398C6.93953 7.2161 6.92272 7.89353 6.90695 8.52927C6.85265 10.7182 6.81061 12.4129 6.25395 14.9597C5.91915 16.4915 5.40644 17.6172 4.89238 18.6803C4.84096 18.7866 4.78969 18.892 4.73865 18.997C4.27968 19.9406 3.83876 20.8472 3.47565 22.0397C3.29244 22.6414 3.11646 23.1377 2.95862 23.5828C2.56628 24.6893 2.28608 25.4795 2.28587 26.7859C2.28549 29.2112 2.28564 31.1636 2.28578 33.0845C2.2859 34.5881 2.28602 36.0725 2.28587 37.7491C2.28586 37.8399 2.32389 37.9264 2.42931 38.009C2.54436 38.0993 2.72446 38.1669 2.92795 38.1669H12.6864C12.7732 38.1669 12.8535 38.1349 12.9229 38.0641C12.9963 37.9892 13.0483 37.8771 13.0483 37.749V26.7858C13.0483 25.3678 12.7737 24.5062 12.3731 23.2493C12.2568 22.8846 12.1299 22.4866 11.9961 22.032C11.6504 20.858 11.1748 19.9807 10.6686 19.0469C10.61 18.939 10.5511 18.8302 10.4919 18.7202C9.92104 17.6592 9.3499 16.5134 9.07348 14.9231C8.50304 11.6413 8.50304 9.83267 8.50304 6.44224V6.42885C8.50304 5.97387 8.68742 5.63446 8.77943 5.46509C8.78429 5.45613 8.7889 5.44765 8.79321 5.43965C8.8418 5.34945 8.85606 5.31947 8.86404 5.29754C8.86001 5.28508 8.85147 5.25996 8.83426 5.21379C8.83286 5.21006 8.83142 5.2062 8.82992 5.2022C8.78564 5.0838 8.69822 4.85005 8.69823 4.54469C8.69826 4.23117 8.79819 3.98535 8.8422 3.87709C8.84475 3.87083 8.84711 3.86503 8.84925 3.8597C8.8061 3.7639 8.71566 3.55764 8.69973 3.28725C8.68085 2.96699 8.76041 2.72496 8.81364 2.57683C8.82051 2.55772 8.82652 2.54103 8.83179 2.5264C8.86847 2.42454 8.86911 2.42276 8.8716 2.40193C8.88306 2.3057 8.88504 2.14909 8.88042 1.98812C8.88015 1.97895 8.87987 1.96991 8.87958 1.96101Z" fill="#FF9522"/>
</svg>
