<svg width="40" height="40" viewBox="0 0 40 40" fill="none" xmlns="http://www.w3.org/2000/svg">
<path d="M39.4927 6.55763C39.1703 6.25316 38.7384 6.10697 38.308 6.15655L36.6067 6.35233C35.2118 5.79475 33.7482 5.51208 32.254 5.51208H31.72C30.2258 5.51208 28.7622 5.79475 27.3672 6.35233L25.666 6.15655C25.2353 6.10684 24.8036 6.25323 24.4813 6.55763C24.1589 6.8621 23.9739 7.29832 23.9739 7.75443V10.8778C23.9739 11.3273 24.1544 11.7592 24.469 12.0628C24.7836 12.3665 25.2082 12.5185 25.6331 12.479L27.3671 12.3194C28.3733 12.7046 29.4146 12.948 30.4743 13.0467V17.4315C30.4743 17.793 30.7517 18.0861 31.0945 18.0881C31.025 18.2647 30.9891 18.4426 30.9891 18.62C30.9891 18.9196 31.089 19.2205 31.2858 19.5145C31.4315 19.7319 31.6159 19.9266 31.7955 20.1162C31.937 20.2656 32.0833 20.4201 32.1677 20.546C32.2295 20.6382 32.2364 20.6817 32.2364 20.6817C32.2364 20.6817 32.2297 20.728 32.1678 20.8205C32.0833 20.9465 31.937 21.101 31.7949 21.2511C31.6163 21.4395 31.4316 21.6345 31.2858 21.8521C31.0889 22.146 30.9891 22.4469 30.9891 22.7465C30.9891 23.0461 31.089 23.347 31.2858 23.641C31.4315 23.8585 31.616 24.0533 31.7949 24.242C31.9366 24.3917 32.0832 24.5463 32.1678 24.6726C32.2295 24.7647 32.2364 24.8082 32.2364 24.8082C32.2364 24.8082 32.2297 24.8545 32.1678 24.947C32.0833 25.0732 31.9366 25.228 31.7946 25.3779C31.6161 25.5663 31.4316 25.7611 31.2858 25.9787C31.089 26.2726 30.9891 26.5735 30.9891 26.8731C30.9891 27.1727 31.089 27.4736 31.2858 27.7675C31.4073 27.9488 31.6001 28.0457 31.7959 28.0457C31.9201 28.0457 32.0456 28.0067 32.1548 27.9255C32.4363 27.7164 32.5034 27.3066 32.3049 27.0102C32.2432 26.9181 32.2363 26.8747 32.2363 26.8747C32.2363 26.8747 32.243 26.8283 32.3049 26.7359C32.3894 26.6098 32.5359 26.4552 32.6778 26.3053C32.8564 26.1168 33.0411 25.9219 33.1869 25.7042C33.3838 25.4103 33.4836 25.1094 33.4836 24.8099C33.4836 24.5103 33.3837 24.2093 33.1869 23.9154C33.0411 23.6978 32.8564 23.5029 32.6776 23.314C32.5359 23.1645 32.3894 23.0099 32.305 22.8839C32.2433 22.7917 32.2364 22.7483 32.2364 22.7483C32.2364 22.7483 32.243 22.7019 32.3049 22.6094C32.3895 22.4832 32.5361 22.3285 32.6785 22.1782C32.8568 21.9899 33.0413 21.7952 33.187 21.5777C33.3838 21.2838 33.4836 20.9829 33.4836 20.6834C33.4836 20.3838 33.3838 20.0829 33.1869 19.7889C33.0413 19.5715 32.8569 19.3768 32.6773 19.1872C32.5357 19.0378 32.3894 18.8833 32.3051 18.7574C32.2433 18.6652 32.2364 18.6218 32.2364 18.6218C32.2364 18.6218 32.2431 18.5754 32.305 18.4829C32.3828 18.3668 32.5132 18.2265 32.6439 18.0883H32.876C33.2204 18.0883 33.4996 17.7943 33.4996 17.4316V13.0303C34.5614 12.9168 35.602 12.6587 36.6068 12.257L38.308 12.4528C38.7385 12.5025 39.1703 12.3562 39.4927 12.0517C39.8151 11.7472 40 11.3111 40 10.855V7.75443C40.0001 7.29832 39.8152 6.8621 39.4927 6.55763ZM31.7216 16.7748V13.0973H32.2524V16.7748H31.7216ZM38.748 10.4904C38.748 10.6046 38.6898 10.6765 38.6552 10.7092C38.6206 10.742 38.5467 10.7949 38.4387 10.7826L36.5865 10.5694C36.486 10.5579 36.3842 10.5721 36.2901 10.6112C35.1888 11.0682 34.0386 11.4674 32.863 11.5357H31.0932C31.0691 11.5357 31.0454 11.5375 31.022 11.5403C29.9172 11.4844 28.8316 11.1199 27.7879 10.7202L27.6587 10.6707C27.5903 10.6445 27.5182 10.6312 27.4456 10.6312C27.4275 10.6312 27.4094 10.632 27.3913 10.6337L25.5197 10.806C25.4133 10.8158 25.3407 10.7625 25.3069 10.7299C25.2731 10.6972 25.2163 10.6257 25.2163 10.5132L25.226 8.01304C25.226 7.89889 25.2841 7.82698 25.3187 7.79421C25.3534 7.7615 25.4277 7.70844 25.5353 7.72091L27.3875 7.9341C27.4881 7.94566 27.5897 7.93134 27.6838 7.89226C28.9762 7.35609 30.3358 7.08419 31.7248 7.08419H32.2587C33.6478 7.08419 35.0074 7.35609 36.2998 7.89226C36.3939 7.93127 36.4955 7.94566 36.5961 7.9341L38.4483 7.72091C38.5562 7.70837 38.6302 7.76157 38.6649 7.79421C38.6995 7.82691 38.7576 7.89883 38.7576 8.01304L38.748 10.4904Z" fill="#FF9522"/>
<path fill-rule="evenodd" clip-rule="evenodd" d="M20.6898 0.642642C21.2625 0.629511 21.8781 0.723496 22.3579 1.13795C22.7895 1.51085 22.9068 2.01767 22.9106 2.41169C22.9143 2.7893 22.819 3.14446 22.7319 3.39964L21.1968 7.89711C19.68 15.048 19.9775 19.6656 21.6883 22.9979C23.4046 26.3409 26.6498 28.6034 31.548 30.7712C31.9519 30.9499 32.268 31.2752 32.4026 31.7299C32.5227 32.1353 32.4631 32.5281 32.3833 32.8164C32.2256 33.3857 31.8693 33.9579 31.5965 34.3591C31.4535 34.5695 31.2853 34.7585 31.0926 34.9232C27.4773 38.0127 21.6647 39.4019 16.0325 39.3574C10.4013 39.313 4.66637 37.8331 1.19921 34.8648C1.07173 34.7557 0.953943 34.635 0.84625 34.5016C0.534093 34.1152 0.2589 33.711 0.113086 33.2701C-0.0488537 32.7804 -0.0342976 32.2999 0.140243 31.8291C0.411203 31.0981 1.03428 30.7189 1.43736 30.524C7.02796 27.8211 9.97422 25.2449 11.3045 21.9384C12.6507 18.5924 12.4373 14.281 11.1274 7.83167L11.1127 7.75949L11.109 7.6858C11.0421 6.34067 11.6649 5.29361 12.8581 4.30878C14.0099 3.35816 15.8267 2.34995 18.4375 1.05403L18.5198 1.01317L18.6083 0.990513C19.4035 0.786975 20.1025 0.65611 20.6898 0.642642ZM19.121 2.78633C16.5411 4.06935 14.9265 4.98546 13.9659 5.77833C13.0758 6.51293 12.8849 7.02222 12.8931 7.52206C14.194 13.9526 14.5263 18.7543 12.9531 22.6647C11.3574 26.6307 7.89681 29.4628 2.18763 32.2231C2.05445 32.2875 1.95567 32.3508 1.88865 32.4096C1.82404 32.4663 1.81012 32.5 1.8079 32.5059C1.79029 32.5534 1.78893 32.5765 1.78875 32.5849C1.78858 32.5927 1.78881 32.6137 1.80345 32.658C1.83952 32.7671 1.94183 32.9585 2.21239 33.2935C2.24809 33.3377 2.28744 33.3782 2.33189 33.4162C5.35062 36.0006 10.6107 37.4429 16.046 37.4858C21.4802 37.5287 26.8053 36.1705 29.9611 33.4735C30.0284 33.416 30.0874 33.3501 30.1389 33.2743C30.3687 32.9362 30.5455 32.6291 30.6318 32.3974C25.7546 30.2148 22.1007 27.7562 20.1126 23.8837C18.0937 19.9513 17.8991 14.7738 19.4629 7.43351L19.4749 7.37694L21.0474 2.7701C21.0734 2.69381 21.0933 2.62306 21.1061 2.56039C21.1074 2.55409 21.1085 2.54798 21.1096 2.54209C21.0347 2.52493 20.9145 2.5096 20.729 2.51385C20.3531 2.52247 19.8312 2.60817 19.121 2.78633Z" fill="#FF9522"/>
</svg>
