<svg width="40" height="40" viewBox="0 0 40 40" fill="none" xmlns="http://www.w3.org/2000/svg">
<path fill-rule="evenodd" clip-rule="evenodd" d="M16.0573 1.61265C16.051 0.856738 15.417 0.517759 15.2413 0.431471C14.9708 0.298698 14.655 0.217498 14.3696 0.162878C13.7799 0.0500203 13.0395 0 12.3321 0C11.6247 0 10.8846 0.0500113 10.2954 0.162936C10.0105 0.21756 9.69453 0.298889 9.42407 0.432213C9.24804 0.518989 8.61163 0.861343 8.61163 1.62127V6.74059L8.71819 6.95801C8.72387 6.96959 8.72933 6.98121 8.73458 6.99286C8.7461 7.02413 8.75846 7.05497 8.77164 7.08537C8.77766 7.10245 8.78327 7.11962 8.78848 7.13688C8.80868 7.22808 8.84323 7.46977 8.75951 7.8743C8.61969 8.22057 8.50074 8.57341 8.4028 8.93094C8.15338 9.64779 8.01716 10.4415 8.01716 11.2708C8.01716 11.6877 8.0516 12.0952 8.11734 12.4882C8.16447 12.9262 8.24194 13.3622 8.34997 13.7932C8.3591 14.2746 8.23179 14.6829 7.8385 14.9375C7.78521 14.9595 7.7298 14.9765 7.67302 14.9881L7.63457 14.9959L7.59682 15.0066C7.51059 15.0311 7.42231 15.0556 7.32953 15.0814L7.32296 15.0832C7.10088 15.1449 6.85508 15.2132 6.60312 15.2912C4.05097 15.7939 2.12597 18.0422 2.12597 20.7422V21.5984C2.12156 21.7382 2.11932 21.8809 2.11932 22.0266V33.5733C2.11846 33.689 2.12069 33.8046 2.12597 33.9201V36.8649C2.12597 38.5865 3.52159 39.9821 5.24315 39.9821H7.49515C7.55715 39.9842 7.61935 39.9852 7.68174 39.9852H11.2541C12.1313 40.0036 13.062 40.0062 14.0286 39.9852H16.9815C17.0126 39.9852 17.0436 39.9849 17.0746 39.9844C17.1058 39.9839 17.1369 39.9832 17.168 39.9821H19.4201C21.1416 39.9821 22.5372 38.5865 22.5372 36.8649V33.9088C22.5421 33.7972 22.5441 33.6853 22.5433 33.5732V22.0234C22.5433 21.8845 22.5413 21.7483 22.5372 21.6146V20.7422C22.5372 18.0535 20.6284 15.8129 18.0923 15.2977C17.8302 15.2158 17.5745 15.1446 17.3443 15.0806L17.3374 15.0786C17.2444 15.0527 17.1558 15.0281 17.0694 15.0035L17.033 14.9932L16.996 14.9855C16.9217 14.9701 16.8497 14.9455 16.7818 14.9123C16.4346 14.6691 16.3096 14.292 16.3092 13.8404C16.4287 13.3715 16.5122 12.8964 16.5598 12.4193C16.6182 12.0477 16.6488 11.6634 16.6488 11.2708C16.6488 10.4696 16.5216 9.70171 16.2882 9.00437C16.1828 8.60547 16.0515 8.21214 15.8944 7.82696C15.8359 7.51966 15.8472 7.31319 15.8632 7.20159C15.8832 7.11634 15.9127 7.03293 15.9517 6.95296L16.0573 6.73631V1.62127L16.0573 1.61265ZM10.7 6.28044V2.21184C11.1139 2.13374 11.7067 2.08842 12.3321 2.08842C12.9591 2.08842 13.5539 2.13398 13.9689 2.21252V6.27835C13.9036 6.44504 13.8524 6.61612 13.8154 6.78979L13.8106 6.8124L13.8068 6.8352C13.7431 7.21663 13.733 7.72617 13.8718 8.35865L13.8922 8.45179L13.9292 8.53968C14.0702 8.87484 14.186 9.21814 14.2766 9.56684L14.2865 9.60467L14.2991 9.64166C14.4644 10.1257 14.5604 10.6784 14.5604 11.2708C14.5604 11.564 14.5369 11.8478 14.4929 12.1186L14.4875 12.1521L14.4842 12.1858C14.4455 12.5879 14.3743 12.9883 14.2704 13.383L14.2669 13.3963L14.2638 13.4096C14.2568 13.4393 14.2503 13.469 14.2442 13.4986L14.227 13.5832L14.2239 13.6696C14.1938 14.5069 14.3876 15.8504 15.6808 16.6883L15.7147 16.7103L15.7502 16.7296C15.9953 16.8627 16.2583 16.9612 16.5315 17.0218C16.6134 17.0449 16.696 17.0679 16.7771 17.0905C17.0308 17.1611 17.2743 17.229 17.5176 17.3062L17.5766 17.325L17.6375 17.3366C19.2388 17.6427 20.4488 19.0522 20.4488 20.7422V21.6471L20.4493 21.6635C20.453 21.7799 20.4549 21.8999 20.4549 22.0234V33.5773L20.4549 33.5859C20.4556 33.6692 20.4539 33.7524 20.45 33.8354L20.4488 33.8602V36.8649C20.4488 37.4331 19.9882 37.8937 19.4201 37.8937H17.1307L17.1115 37.8944L17.0688 37.8957L17.0402 37.8963C17.0207 37.8966 17.0011 37.8968 16.9815 37.8968H14.0059L13.9944 37.897C13.0524 37.9177 12.1442 37.9152 11.2871 37.897L11.2761 37.8968H7.68174C7.63811 37.8968 7.59474 37.896 7.55164 37.8944L7.53248 37.8937H5.24315C4.67499 37.8937 4.2144 37.4331 4.2144 36.8649V33.869L4.21309 33.8429C4.20881 33.7574 4.20701 33.6716 4.20771 33.5857L4.20774 33.5773V22.0266C4.20774 21.8971 4.20981 21.7714 4.21383 21.6496L4.2144 21.6324V20.7422C4.2144 19.0447 5.43523 17.6302 7.04703 17.3326L7.10988 17.321L7.17083 17.3018C7.40697 17.2275 7.64287 17.1619 7.88873 17.0935C7.96889 17.0713 8.05166 17.0483 8.13257 17.0254C8.35489 16.9767 8.57046 16.903 8.77525 16.8059L8.8184 16.7854L8.8595 16.7611C10.3009 15.9085 10.4783 14.4474 10.4319 13.5854L10.4261 13.4786L10.3988 13.3752C10.2998 13.0001 10.2306 12.6198 10.1909 12.2377L10.1873 12.2028L10.1813 12.1683C10.1321 11.8825 10.1056 11.5819 10.1056 11.2708C10.1056 10.6573 10.2085 10.0867 10.3846 9.59071L10.3982 9.55231L10.4088 9.51296C10.4933 9.19927 10.5985 8.8901 10.7242 8.5875L10.7573 8.50764L10.7769 8.42342C10.9622 7.62674 10.9118 7.02203 10.812 6.61904L10.8077 6.6019L10.8029 6.5849C10.7778 6.49639 10.7489 6.40884 10.7162 6.32248L10.7016 6.28368L10.7 6.28044ZM14.3209 2.30614C14.3507 2.3208 14.3433 2.32084 14.3155 2.30363L14.3209 2.30614Z" fill="#FF9522"/>
<path fill-rule="evenodd" clip-rule="evenodd" d="M24.9847 28.3012C24.8425 27.5838 25.3914 26.9154 26.1228 26.9154H36.7189C37.4503 26.9154 37.9992 27.5838 37.857 28.3012L35.7274 39.0474C35.6198 39.5907 35.1432 39.9821 34.5893 39.9821H28.2524C27.6985 39.9821 27.2219 39.5907 27.1143 39.0474L24.9847 28.3012ZM35.1478 33.4488L36.011 28.577H26.8307L27.6938 33.4488L28.5817 38.5303H34.3093L35.1478 33.4488Z" fill="#FF9522"/>
</svg>
