<svg width="36" height="40" viewBox="0 0 36 40" fill="none" xmlns="http://www.w3.org/2000/svg">
<path fill-rule="evenodd" clip-rule="evenodd" d="M14.0573 1.61265C14.051 0.856738 13.417 0.517759 13.2413 0.431471C12.9708 0.298698 12.655 0.217498 12.3696 0.162878C11.7799 0.0500203 11.0395 0 10.3321 0C9.62472 0 8.88456 0.0500113 8.29544 0.162936C8.01047 0.21756 7.69453 0.298889 7.42407 0.432213C7.24804 0.518989 6.61163 0.861343 6.61163 1.62127V6.74059L6.71819 6.95801C6.72387 6.96959 6.72933 6.98121 6.73458 6.99286C6.7461 7.02413 6.75846 7.05497 6.77164 7.08537C6.77766 7.10245 6.78327 7.11962 6.78848 7.13688C6.80868 7.22808 6.84323 7.46977 6.75951 7.8743C6.61969 8.22057 6.50074 8.57341 6.4028 8.93094C6.15338 9.64779 6.01716 10.4415 6.01716 11.2708C6.01716 11.6877 6.0516 12.0952 6.11734 12.4882C6.16447 12.9262 6.24194 13.3622 6.34997 13.7932C6.3591 14.2746 6.23179 14.6829 5.8385 14.9375C5.78521 14.9595 5.7298 14.9765 5.67302 14.9881L5.63457 14.9959L5.59682 15.0066C5.51059 15.0311 5.42231 15.0556 5.32953 15.0814L5.32296 15.0832C5.10088 15.1449 4.85508 15.2132 4.60312 15.2912C2.05097 15.7939 0.125974 18.0422 0.125974 20.7422V21.5984C0.121556 21.7382 0.119318 21.8809 0.119318 22.0266V33.5733C0.118465 33.689 0.120685 33.8046 0.125974 33.9201V36.8649C0.125974 38.5865 1.52159 39.9821 3.24315 39.9821H5.49515C5.55715 39.9842 5.61935 39.9852 5.68174 39.9852H9.25408C10.1313 40.0036 11.062 40.0062 12.0286 39.9852H14.9815C15.0126 39.9852 15.0436 39.9849 15.0746 39.9844C15.1058 39.9839 15.1369 39.9832 15.168 39.9821H17.4201C19.1416 39.9821 20.5372 38.5865 20.5372 36.8649V33.9088C20.5421 33.7972 20.5441 33.6853 20.5433 33.5732V22.0234C20.5433 21.8845 20.5413 21.7483 20.5372 21.6146V20.7422C20.5372 18.0535 18.6284 15.8129 16.0923 15.2977C15.8302 15.2158 15.5745 15.1446 15.3443 15.0806L15.3374 15.0786C15.2444 15.0527 15.1558 15.0281 15.0694 15.0035L15.033 14.9932L14.996 14.9855C14.9217 14.9701 14.8497 14.9455 14.7818 14.9123C14.4346 14.6691 14.3096 14.292 14.3092 13.8404C14.4287 13.3715 14.5122 12.8964 14.5598 12.4193C14.6182 12.0477 14.6488 11.6634 14.6488 11.2708C14.6488 10.4696 14.5216 9.70171 14.2882 9.00437C14.1828 8.60547 14.0515 8.21214 13.8944 7.82696C13.8359 7.51966 13.8472 7.31319 13.8632 7.20159C13.8832 7.11634 13.9127 7.03293 13.9517 6.95296L14.0573 6.73631V1.62127L14.0573 1.61265ZM8.70005 6.28044V2.21184C9.11395 2.13374 9.70673 2.08842 10.3321 2.08842C10.9591 2.08842 11.5539 2.13398 11.9689 2.21252V6.27835C11.9036 6.44504 11.8524 6.61612 11.8154 6.78979L11.8106 6.8124L11.8068 6.8352C11.7431 7.21663 11.733 7.72617 11.8718 8.35865L11.8922 8.45179L11.9292 8.53968C12.0702 8.87484 12.186 9.21814 12.2766 9.56684L12.2865 9.60467L12.2991 9.64166C12.4644 10.1257 12.5604 10.6784 12.5604 11.2708C12.5604 11.564 12.5369 11.8478 12.4929 12.1186L12.4875 12.1521L12.4842 12.1858C12.4455 12.5879 12.3743 12.9883 12.2704 13.383L12.2669 13.3963L12.2638 13.4096C12.2568 13.4393 12.2503 13.469 12.2442 13.4986L12.227 13.5832L12.2239 13.6696C12.1938 14.5069 12.3876 15.8504 13.6808 16.6883L13.7147 16.7103L13.7502 16.7296C13.9953 16.8627 14.2583 16.9612 14.5315 17.0218C14.6134 17.0449 14.696 17.0679 14.7771 17.0905C15.0308 17.1611 15.2743 17.229 15.5176 17.3062L15.5766 17.325L15.6375 17.3366C17.2388 17.6427 18.4488 19.0522 18.4488 20.7422V21.6471L18.4493 21.6635C18.453 21.7799 18.4549 21.8999 18.4549 22.0234V33.5773L18.4549 33.5859C18.4556 33.6692 18.4539 33.7524 18.45 33.8354L18.4488 33.8602V36.8649C18.4488 37.4331 17.9882 37.8937 17.4201 37.8937H15.1307L15.1115 37.8944L15.0688 37.8957L15.0402 37.8963C15.0207 37.8966 15.0011 37.8968 14.9815 37.8968H12.0059L11.9944 37.897C11.0524 37.9177 10.1442 37.9152 9.28714 37.897L9.27609 37.8968H5.68174C5.63811 37.8968 5.59474 37.896 5.55164 37.8944L5.53248 37.8937H3.24315C2.67499 37.8937 2.2144 37.4331 2.2144 36.8649V33.869L2.21309 33.8429C2.20881 33.7574 2.20701 33.6716 2.20771 33.5857L2.20774 33.5773V22.0266C2.20774 21.8971 2.20981 21.7714 2.21383 21.6496L2.2144 21.6324V20.7422C2.2144 19.0447 3.43523 17.6302 5.04703 17.3326L5.10988 17.321L5.17083 17.3018C5.40697 17.2275 5.64287 17.1619 5.88873 17.0935C5.96889 17.0713 6.05166 17.0483 6.13257 17.0254C6.35489 16.9767 6.57046 16.903 6.77525 16.8059L6.8184 16.7854L6.8595 16.7611C8.30092 15.9085 8.47828 14.4474 8.43187 13.5854L8.42612 13.4786L8.39882 13.3752C8.29985 13.0001 8.23063 12.6198 8.19092 12.2377L8.18729 12.2028L8.18133 12.1683C8.13206 11.8825 8.10558 11.5819 8.10558 11.2708C8.10558 10.6573 8.20846 10.0867 8.38456 9.59071L8.3982 9.55231L8.4088 9.51296C8.49331 9.19927 8.59849 8.8901 8.72418 8.5875L8.75735 8.50764L8.77693 8.42342C8.96217 7.62674 8.91177 7.02203 8.81196 6.61904L8.80771 6.6019L8.80289 6.5849C8.77776 6.49639 8.74886 6.40884 8.71623 6.32248L8.70158 6.28368L8.70005 6.28044ZM12.3209 2.30614C12.3507 2.3208 12.3433 2.32084 12.3155 2.30363L12.3209 2.30614Z" fill="#FF9522"/>
<path fill-rule="evenodd" clip-rule="evenodd" d="M22.9847 28.3012C22.8425 27.5838 23.3914 26.9154 24.1228 26.9154H34.7189C35.4503 26.9154 35.9992 27.5838 35.857 28.3012L33.7274 39.0474C33.6198 39.5907 33.1432 39.9821 32.5893 39.9821H26.2524C25.6985 39.9821 25.2219 39.5907 25.1143 39.0474L22.9847 28.3012ZM33.1478 33.4488L34.011 28.577H24.8307L25.6938 33.4488L26.5817 38.5303H32.3093L33.1478 33.4488Z" fill="#FF9522"/>
</svg>
