<svg width="18" height="40" viewBox="0 0 18 40" fill="none" xmlns="http://www.w3.org/2000/svg">
<path fill-rule="evenodd" clip-rule="evenodd" d="M6.92122 3.22738e-05C6.92127 3.22738e-05 6.92117 3.22738e-05 6.92122 3.22738e-05L11.5095 3.5181e-05C11.9287 4.70173e-05 12.3163 5.79532e-05 12.6255 0.0326375C12.936 0.0653602 13.3758 0.146573 13.7252 0.477737C14.0818 0.815803 14.1731 1.25019 14.2091 1.55763C14.2441 1.85664 14.2441 2.22949 14.244 2.62407L14.244 5.41387C14.244 5.88384 13.9289 6.28136 13.4953 6.41286V7.91002C13.5594 7.98617 13.6499 8.0791 13.7819 8.20575C13.8078 8.23062 13.8353 8.25682 13.8643 8.28433C14.0613 8.47176 14.3221 8.71976 14.5619 9.0179C14.7212 9.21586 14.8774 9.40613 15.03 9.59184C16.2227 11.0442 17.1867 12.2181 17.5652 14.6121L17.5765 14.6831V36.3956C17.5765 36.8205 17.4448 37.2474 17.1802 37.6055C16.3799 38.6884 15.5239 39.5927 14.3856 39.857C13.377 40.0911 12.38 39.7761 11.3464 39.1742C10.5801 39.6179 9.83349 39.9317 9.05168 39.9494C8.25153 39.9676 7.54925 39.678 6.86564 39.2019C5.8621 39.7499 4.79287 40.105 3.73653 39.9721C2.38408 39.8019 1.35387 38.8825 0.628018 37.3815C0.491539 37.0993 0.433594 36.8008 0.433594 36.5175V14.7182L0.4365 14.6819C0.547476 13.2931 0.836062 12.2306 1.37376 11.2983C1.90391 10.3791 2.63863 9.65464 3.51003 8.89776L3.5441 8.86817L5.16448 7.71308V6.39931C4.75244 6.25566 4.45727 5.86869 4.45727 5.41382V2.67133C4.45727 2.65744 4.45727 2.64359 4.45727 2.62978C4.45723 2.23003 4.4572 1.86553 4.48529 1.5758C4.51264 1.29365 4.57934 0.880477 4.87504 0.541501C5.19682 0.172632 5.6238 0.0726884 5.92125 0.0348227C6.19679 -0.000254084 6.53544 -0.000118484 6.87287 1.67689e-05C6.88894 2.32062e-05 6.90516 2.96435e-05 6.92122 3.22738e-05ZM7.56471 37.3852C8.27421 37.973 8.68067 38.0993 9.00812 38.0918C9.37609 38.0835 9.86127 37.9065 10.7151 37.3764C10.9778 37.0517 11.1191 36.8219 11.2099 36.6138C11.31 36.3847 11.3716 36.1307 11.4256 35.7163C11.4918 35.2074 11.9646 34.8477 12.4816 34.9129C12.9986 34.9782 13.364 35.4436 13.2977 35.9525C13.2337 36.4445 13.1431 36.8915 12.944 37.3475C12.8775 37.4998 12.8015 37.6473 12.7153 37.7933C13.3143 38.0831 13.6857 38.1104 13.9524 38.0485C14.3643 37.9529 14.8689 37.5746 15.6539 36.5124C15.6731 36.4863 15.689 36.4459 15.689 36.3956V14.8284C15.3858 12.9936 14.7247 12.1846 13.5639 10.7642C13.412 10.5783 13.2516 10.3819 13.0823 10.1714C12.9256 9.97677 12.7604 9.81905 12.5595 9.62726C12.5287 9.59782 12.497 9.56757 12.4644 9.53626C12.2436 9.32444 11.9473 9.03482 11.7382 8.6602C11.6481 8.49875 11.6079 8.32496 11.6079 8.15904V5.64613C11.6079 5.17615 11.923 4.77863 12.3565 4.64713V2.67133C12.3565 2.29266 12.3555 2.04771 12.3434 1.87303C12.1512 1.85915 11.8816 1.85816 11.4626 1.8581C11.4626 1.8581 11.4627 1.8581 11.4626 1.8581H6.92106C6.66627 1.85806 6.48772 1.85877 6.35588 1.86365C6.34545 2.04691 6.34475 2.29808 6.34475 2.67133V4.66041C6.75679 4.80405 7.05196 5.19103 7.05196 5.6459V8.12808C7.05196 8.46322 6.8887 8.77804 6.61295 8.9746L4.72506 10.3204C3.91116 11.0298 3.38058 11.582 3.01514 12.2157C2.65582 12.8387 2.4192 13.607 2.32108 14.7919V36.5175C2.32108 36.5545 2.32885 36.5758 2.33224 36.5828C2.89159 37.7395 3.4775 38.0663 3.97582 38.129C4.36667 38.1782 4.85279 38.0877 5.44523 37.8269C5.36857 37.7168 5.29807 37.6026 5.23486 37.4831C4.96587 36.9743 4.86597 36.442 4.86699 35.8329C4.86785 35.3198 5.29107 34.9046 5.81229 34.9054C6.3335 34.9063 6.75533 35.3229 6.75447 35.836C6.75381 36.2296 6.81552 36.4482 6.90914 36.6252C7.01322 36.8221 7.19526 37.0417 7.56471 37.3852Z" fill="#FF9522"/>
</svg>
