<svg width="40" height="40" viewBox="0 0 40 40" fill="none" xmlns="http://www.w3.org/2000/svg">
<path fill-rule="evenodd" clip-rule="evenodd" d="M17.9212 3.22738e-05C17.9213 3.22738e-05 17.9212 3.22738e-05 17.9212 3.22738e-05L22.5095 3.5181e-05C22.9287 4.70173e-05 23.3163 5.79532e-05 23.6255 0.0326375C23.936 0.0653602 24.3758 0.146573 24.7252 0.477737C25.0818 0.815803 25.1731 1.25019 25.2091 1.55763C25.2441 1.85664 25.2441 2.22949 25.244 2.62407L25.244 5.41387C25.244 5.88384 24.9289 6.28136 24.4953 6.41286V7.91002C24.5594 7.98617 24.6499 8.0791 24.7819 8.20575C24.8078 8.23062 24.8353 8.25682 24.8643 8.28433C25.0613 8.47176 25.3221 8.71976 25.5619 9.0179C25.7212 9.21586 25.8774 9.40613 26.03 9.59184C27.2227 11.0442 28.1867 12.2181 28.5652 14.6121L28.5765 14.6831V36.3956C28.5765 36.8205 28.4448 37.2474 28.1802 37.6055C27.3799 38.6884 26.5239 39.5927 25.3856 39.857C24.377 40.0911 23.38 39.7761 22.3464 39.1742C21.5801 39.6179 20.8335 39.9317 20.0517 39.9494C19.2515 39.9676 18.5493 39.678 17.8656 39.2019C16.8621 39.7499 15.7929 40.105 14.7365 39.9721C13.3841 39.8019 12.3539 38.8825 11.628 37.3815C11.4915 37.0993 11.4336 36.8008 11.4336 36.5175V14.7182L11.4365 14.6819C11.5475 13.2931 11.8361 12.2306 12.3738 11.2983C12.9039 10.3791 13.6386 9.65464 14.51 8.89776L14.5441 8.86817L16.1645 7.71308V6.39931C15.7524 6.25566 15.4573 5.86869 15.4573 5.41382V2.67133C15.4573 2.65744 15.4573 2.64359 15.4573 2.62978C15.4572 2.23003 15.4572 1.86553 15.4853 1.5758C15.5126 1.29365 15.5793 0.880477 15.875 0.541501C16.1968 0.172632 16.6238 0.0726884 16.9212 0.0348227C17.1968 -0.000254084 17.5354 -0.000118484 17.8729 1.67689e-05C17.8889 2.32062e-05 17.9052 2.96435e-05 17.9212 3.22738e-05ZM18.5647 37.3852C19.2742 37.973 19.6807 38.0993 20.0081 38.0918C20.3761 38.0835 20.8613 37.9065 21.7151 37.3764C21.9778 37.0517 22.1191 36.8219 22.2099 36.6138C22.31 36.3847 22.3716 36.1307 22.4256 35.7163C22.4918 35.2074 22.9646 34.8477 23.4816 34.9129C23.9986 34.9782 24.364 35.4436 24.2977 35.9525C24.2337 36.4445 24.1431 36.8915 23.944 37.3475C23.8775 37.4998 23.8015 37.6473 23.7153 37.7933C24.3143 38.0831 24.6857 38.1104 24.9524 38.0485C25.3643 37.9529 25.8689 37.5746 26.6539 36.5124C26.6731 36.4863 26.689 36.4459 26.689 36.3956V14.8284C26.3858 12.9936 25.7247 12.1846 24.5639 10.7642C24.412 10.5783 24.2516 10.3819 24.0823 10.1714C23.9256 9.97677 23.7604 9.81905 23.5595 9.62726C23.5287 9.59782 23.497 9.56757 23.4644 9.53626C23.2436 9.32444 22.9473 9.03482 22.7382 8.6602C22.6481 8.49875 22.6079 8.32496 22.6079 8.15904V5.64613C22.6079 5.17615 22.923 4.77863 23.3565 4.64713V2.67133C23.3565 2.29266 23.3555 2.04771 23.3434 1.87303C23.1512 1.85915 22.8816 1.85816 22.4626 1.8581C22.4626 1.8581 22.4627 1.8581 22.4626 1.8581H17.9211C17.6663 1.85806 17.4877 1.85877 17.3559 1.86365C17.3454 2.04691 17.3448 2.29808 17.3448 2.67133V4.66041C17.7568 4.80405 18.052 5.19103 18.052 5.6459V8.12808C18.052 8.46322 17.8887 8.77804 17.613 8.9746L15.7251 10.3204C14.9112 11.0298 14.3806 11.582 14.0151 12.2157C13.6558 12.8387 13.4192 13.607 13.3211 14.7919V36.5175C13.3211 36.5545 13.3288 36.5758 13.3322 36.5828C13.8916 37.7395 14.4775 38.0663 14.9758 38.129C15.3667 38.1782 15.8528 38.0877 16.4452 37.8269C16.3686 37.7168 16.2981 37.6026 16.2349 37.4831C15.9659 36.9743 15.866 36.442 15.867 35.8329C15.8678 35.3198 16.2911 34.9046 16.8123 34.9054C17.3335 34.9063 17.7553 35.3229 17.7545 35.836C17.7538 36.2296 17.8155 36.4482 17.9091 36.6252C18.0132 36.8221 18.1953 37.0417 18.5647 37.3852Z" fill="#FF9522"/>
</svg>
