<svg width="28" height="40" viewBox="0 0 28 40" fill="none" xmlns="http://www.w3.org/2000/svg">
<path fill-rule="evenodd" clip-rule="evenodd" d="M21.3996 36.5993L21.3949 36.5998C21.3953 36.6154 21.3954 36.6314 21.3955 36.6476C21.3955 36.6564 21.3955 36.6654 21.3954 36.6745C21.3926 37.0126 21.3241 37.455 21.1275 37.8114C21.0614 37.9312 20.9808 38.0412 20.8834 38.1343C20.6942 38.3152 20.4414 38.4321 20.1076 38.4321L18.2861 38.4322C17.8708 38.4322 17.5415 38.7832 17.5507 39.2161C17.5598 39.649 17.904 40 18.3193 40H26.0274C26.4428 40 26.7721 39.649 26.7629 39.2161C26.7538 38.7832 26.4096 38.4322 25.9943 38.4322L24.1715 38.4321C23.8378 38.4321 23.58 38.3152 23.3831 38.1343C23.3527 38.1064 23.3238 38.077 23.2963 38.0462C23.2319 37.9744 23.1752 37.8953 23.1254 37.8114C22.908 37.4455 22.8218 36.9889 22.8081 36.6476L22.6965 31.3733C22.6729 30.2597 22.7431 29.4725 22.9005 28.8885C23.2123 27.7319 23.8664 27.3723 24.8129 26.8522C24.967 26.7674 25.1289 26.6785 25.2983 26.5811C28.708 24.6935 27.231 18.3651 24.976 14.9314H18.3135C16.2056 18.3572 14.9965 24.6856 18.4862 26.5811C18.6532 26.6737 18.8129 26.7587 18.9652 26.8398C19.9451 27.3617 20.6193 27.7207 20.9811 28.8873C21.1625 29.4722 21.2654 30.2601 21.289 31.3733L21.3996 36.5993ZM21.8972 26.7265C22.4909 25.9752 23.245 25.5636 23.7824 25.2702C23.8183 25.2506 23.8533 25.2315 23.8872 25.2129C24.043 25.1273 24.1903 25.0463 24.3424 24.9588L24.355 24.9516L24.3678 24.9445C25.0894 24.545 25.6064 23.5026 25.4042 21.4828C25.2466 19.9077 24.6688 18.1815 23.9324 16.7971H19.4355C18.7591 18.1781 18.2549 19.902 18.1641 21.4767C18.0477 23.4957 18.6084 24.5431 19.3504 24.9461L19.3649 24.954C19.5157 25.0376 19.6615 25.1154 19.8154 25.1973C19.8505 25.216 19.8868 25.2352 19.924 25.2549C20.4819 25.55 21.2655 25.9644 21.8972 26.7265Z" fill="#FF9522"/>
<path fill-rule="evenodd" clip-rule="evenodd" d="M4.21804 0.0712565C4.39724 0.0125183 4.56846 -1.2573e-05 4.7059 9.46231e-09H7.59716C7.72888 -8.47155e-06 7.90247 0.0105389 8.08449 0.0700261C8.29184 0.137787 8.46174 0.252661 8.5956 0.397428C8.70177 0.512264 8.77249 0.634787 8.80204 0.685991L8.80509 0.691286C8.81374 0.706238 8.82127 0.719354 8.82807 0.731193C8.85196 0.772808 8.8668 0.798651 8.88925 0.833067C9.0952 1.14874 9.1943 1.49638 9.18261 1.85793C9.17157 2.19949 9.06347 2.49871 8.94705 2.73833C8.89066 2.85439 8.8865 2.90132 8.88388 2.94384C8.88151 2.98228 8.8816 3.03077 8.88434 3.12198C8.88476 3.13619 8.88526 3.15155 8.88579 3.16794C8.88835 3.24728 8.89168 3.35059 8.89168 3.46311V10.0893C8.89168 10.2073 8.9074 10.2443 8.9088 10.2476C8.9088 10.2476 8.91155 10.254 8.91827 10.2628C8.92575 10.2727 8.9425 10.2923 8.97654 10.3216C9.51438 10.784 9.87877 11.1272 10.1924 11.4921C10.5051 11.856 10.748 12.2197 11.0534 12.6881C11.4903 13.3584 11.9035 13.9993 11.9036 15.077V37.8709C11.9036 39.0571 10.9245 39.9605 9.78936 39.9605H2.80299C1.66742 39.9605 0.689348 39.0563 0.689454 37.8708C0.689829 33.6787 0.689715 29.0935 0.68959 24.0806C0.689518 21.2207 0.689444 18.2216 0.689454 15.077C0.689457 14.2158 0.782203 13.564 1.27494 12.7251C1.91897 11.6287 2.36231 11.2102 3.3349 10.3354C3.43939 10.2414 3.46499 10.1966 3.47069 10.1854C3.47312 10.1807 3.47517 10.1758 3.47727 10.1664C3.47962 10.1559 3.48364 10.1323 3.48364 10.0893V3.46311C3.48364 3.21024 3.4795 3.12666 3.46684 3.05765C3.45796 3.00921 3.43827 2.93339 3.34655 2.75245C3.22116 2.50506 3.11129 2.20099 3.10167 1.8548C3.09156 1.49149 3.19378 1.14506 3.39737 0.833036C3.42051 0.797565 3.43266 0.777342 3.4491 0.749949C3.46115 0.729896 3.4755 0.705999 3.49816 0.669464C3.53515 0.609826 3.61084 0.48914 3.725 0.374648C3.85696 0.242307 4.02049 0.136012 4.21804 0.0712565ZM4.69689 1.86627L4.69974 1.86614ZM4.99072 1.86607C4.99622 1.87857 5.00291 1.89278 5.01101 1.90876C5.15084 2.18463 5.2501 2.43654 5.30228 2.7209C5.34975 2.97963 5.34973 3.22921 5.34971 3.45022L5.34971 10.0893C5.34971 10.4196 5.28522 10.7354 5.13248 11.0344C4.98516 11.3228 4.78185 11.5437 4.58283 11.7228C3.65971 12.5531 3.38336 12.82 2.88397 13.6702C2.61162 14.1339 2.55553 14.4275 2.55552 15.077C2.55551 18.2214 2.55559 21.2203 2.55566 24.0801C2.55578 29.0932 2.5559 33.6787 2.55552 37.8709C2.55551 37.9762 2.64776 38.0944 2.80299 38.0944H9.78936C9.94539 38.0944 10.0375 37.9758 10.0375 37.8709V15.077C10.0375 14.5887 9.90844 14.3488 9.49016 13.7072C9.18333 13.2365 9.00023 12.968 8.7771 12.7083C8.55484 12.4497 8.27357 12.1781 7.75998 11.7366C7.52009 11.5303 7.32074 11.2831 7.1904 10.9752C7.06264 10.6734 7.02561 10.3706 7.02561 10.0893V3.46311C7.02561 3.40996 7.02318 3.35167 7.02053 3.28835C7.00689 2.96159 6.98767 2.50108 7.26858 1.92287C7.27915 1.90113 7.28755 1.88227 7.29421 1.86607H4.99072ZM7.61095 1.86642C7.61095 1.86642 7.60955 1.8664 7.60701 1.8662Z" fill="#FF9522"/>
</svg>
