<svg width="40" height="40" viewBox="0 0 40 40" fill="none" xmlns="http://www.w3.org/2000/svg">
<path fill-rule="evenodd" clip-rule="evenodd" d="M27.3996 36.5993L27.3949 36.5998C27.3953 36.6154 27.3954 36.6314 27.3955 36.6476C27.3955 36.6564 27.3955 36.6654 27.3954 36.6745C27.3926 37.0126 27.3241 37.455 27.1275 37.8114C27.0614 37.9312 26.9808 38.0412 26.8834 38.1343C26.6942 38.3152 26.4414 38.4321 26.1076 38.4321L24.2861 38.4322C23.8708 38.4322 23.5415 38.7832 23.5507 39.2161C23.5598 39.649 23.904 40 24.3193 40H32.0274C32.4428 40 32.7721 39.649 32.7629 39.2161C32.7538 38.7832 32.4096 38.4322 31.9943 38.4322L30.1715 38.4321C29.8378 38.4321 29.58 38.3152 29.3831 38.1343C29.3527 38.1064 29.3238 38.077 29.2963 38.0462C29.2319 37.9744 29.1752 37.8953 29.1254 37.8114C28.908 37.4455 28.8218 36.9889 28.8081 36.6476L28.6965 31.3733C28.6729 30.2597 28.7431 29.4725 28.9005 28.8885C29.2123 27.7319 29.8664 27.3723 30.8129 26.8522C30.967 26.7674 31.1289 26.6785 31.2983 26.5811C34.708 24.6935 33.231 18.3651 30.976 14.9314H24.3135C22.2056 18.3572 20.9965 24.6856 24.4862 26.5811C24.6532 26.6737 24.8129 26.7587 24.9652 26.8398C25.9451 27.3617 26.6193 27.7207 26.9811 28.8873C27.1625 29.4722 27.2654 30.2601 27.289 31.3733L27.3996 36.5993ZM27.8972 26.7265C28.4909 25.9752 29.245 25.5636 29.7824 25.2702C29.8183 25.2506 29.8533 25.2315 29.8872 25.2129C30.043 25.1273 30.1903 25.0463 30.3424 24.9588L30.355 24.9516L30.3678 24.9445C31.0894 24.545 31.6064 23.5026 31.4042 21.4828C31.2466 19.9077 30.6688 18.1815 29.9324 16.7971H25.4355C24.7591 18.1781 24.2549 19.902 24.1641 21.4767C24.0477 23.4957 24.6084 24.5431 25.3504 24.9461L25.3649 24.954C25.5157 25.0376 25.6615 25.1154 25.8154 25.1973C25.8505 25.216 25.8868 25.2352 25.924 25.2549C26.4819 25.55 27.2655 25.9644 27.8972 26.7265Z" fill="#FF9522"/>
<path fill-rule="evenodd" clip-rule="evenodd" d="M10.218 0.0712565C10.3972 0.0125183 10.5685 -1.2573e-05 10.7059 9.46231e-09H13.5972C13.7289 -8.47155e-06 13.9025 0.0105389 14.0845 0.0700261C14.2918 0.137787 14.4617 0.252661 14.5956 0.397428C14.7018 0.512264 14.7725 0.634787 14.802 0.685991L14.8051 0.691286C14.8137 0.706238 14.8213 0.719354 14.8281 0.731193C14.852 0.772808 14.8668 0.798651 14.8892 0.833067C15.0952 1.14874 15.1943 1.49638 15.1826 1.85793C15.1716 2.19949 15.0635 2.49871 14.9471 2.73833C14.8907 2.85439 14.8865 2.90132 14.8839 2.94384C14.8815 2.98228 14.8816 3.03077 14.8843 3.12198C14.8848 3.13619 14.8853 3.15155 14.8858 3.16794C14.8883 3.24728 14.8917 3.35059 14.8917 3.46311V10.0893C14.8917 10.2073 14.9074 10.2443 14.9088 10.2476C14.9088 10.2476 14.9116 10.254 14.9183 10.2628C14.9257 10.2727 14.9425 10.2923 14.9765 10.3216C15.5144 10.784 15.8788 11.1272 16.1924 11.4921C16.5051 11.856 16.748 12.2197 17.0534 12.6881C17.4903 13.3584 17.9035 13.9993 17.9036 15.077V37.8709C17.9036 39.0571 16.9245 39.9605 15.7894 39.9605H8.80299C7.66742 39.9605 6.68935 39.0563 6.68945 37.8708C6.68983 33.6787 6.68971 29.0935 6.68959 24.0806C6.68952 21.2207 6.68944 18.2216 6.68945 15.077C6.68946 14.2158 6.7822 13.564 7.27494 12.7251C7.91897 11.6287 8.36231 11.2102 9.3349 10.3354C9.43939 10.2414 9.46499 10.1966 9.47069 10.1854C9.47312 10.1807 9.47517 10.1758 9.47727 10.1664C9.47962 10.1559 9.48364 10.1323 9.48364 10.0893V3.46311C9.48364 3.21024 9.4795 3.12666 9.46684 3.05765C9.45796 3.00921 9.43827 2.93339 9.34655 2.75245C9.22116 2.50506 9.11129 2.20099 9.10167 1.8548C9.09156 1.49149 9.19378 1.14506 9.39737 0.833036C9.42051 0.797565 9.43266 0.777342 9.4491 0.749949C9.46115 0.729896 9.4755 0.705999 9.49816 0.669464C9.53515 0.609826 9.61084 0.48914 9.725 0.374648C9.85696 0.242307 10.0205 0.136012 10.218 0.0712565ZM10.6969 1.86627L10.6997 1.86614L10.6969 1.86627ZM10.9907 1.86607C10.9962 1.87857 11.0029 1.89278 11.011 1.90876C11.1508 2.18463 11.2501 2.43654 11.3023 2.7209C11.3497 2.97963 11.3497 3.22921 11.3497 3.45022L11.3497 10.0893C11.3497 10.4196 11.2852 10.7354 11.1325 11.0344C10.9852 11.3228 10.7819 11.5437 10.5828 11.7228C9.65971 12.5531 9.38336 12.82 8.88397 13.6702C8.61162 14.1339 8.55553 14.4275 8.55552 15.077C8.55551 18.2214 8.55559 21.2203 8.55566 24.0801C8.55578 29.0932 8.5559 33.6787 8.55552 37.8709C8.55551 37.9762 8.64776 38.0944 8.80299 38.0944H15.7894C15.9454 38.0944 16.0375 37.9758 16.0375 37.8709V15.077C16.0375 14.5887 15.9084 14.3488 15.4902 13.7072C15.1833 13.2365 15.0002 12.968 14.7771 12.7083C14.5548 12.4497 14.2736 12.1781 13.76 11.7366C13.5201 11.5303 13.3207 11.2831 13.1904 10.9752C13.0626 10.6734 13.0256 10.3706 13.0256 10.0893V3.46311C13.0256 3.40996 13.0232 3.35167 13.0205 3.28835C13.0069 2.96159 12.9877 2.50108 13.2686 1.92287C13.2791 1.90113 13.2875 1.88227 13.2942 1.86607H10.9907ZM13.6109 1.86642C13.6109 1.86642 13.6096 1.8664 13.607 1.8662L13.6109 1.86642Z" fill="#FF9522"/>
</svg>
